<?xml version="1.0"?>
<svg xmlns="http://www.w3.org/2000/svg" xmlns:xlink="http://www.w3.org/1999/xlink" version="1.1" id="Layer_1" x="0px" y="0px" viewBox="0 0 512 512" style="enable-background:new 0 0 512 512;" xml:space="preserve" width="512px" height="512px" class=""><g><rect x="244.927" y="404.099" transform="matrix(-0.9893 0.1457 -0.1457 -0.9893 569.9288 866.5723)" style="fill:#FCDB5A" width="16.605" height="100.117" data-original="#FCDB5A" class="" data-old_color="#FCDB5A"/><path style="fill:#FFE6B8;" d="M368.587,309.857L220.201,431.696c79.23,0,146.88-42.742,174.7-103.308L368.587,309.857z" data-original="#FFE6B8" class=""/><path style="fill:#FFF3DC;" d="M220.201,205.342l148.386,104.514l-6.897,18.532c-22.528,60.565-77.326,103.308-141.489,103.308  c-104.105,0-188.748-73.794-188.748-164.836c0-20.58,8.613-39.156,22.451-52.362c19.86-18.952,79.451-75.82,79.451-75.82h86.846  L220.201,205.342L220.201,205.342z" data-original="#FFF3DC" class=""/><path style="fill:#FCDB5A" d="M133.121,109.785H52.127c-11.421,0-20.678-9.257-20.678-20.678s9.257-20.678,20.678-20.678h37.295  C94.511,89.478,111.648,105.84,133.121,109.785z" data-original="#FCDB5A" class="" data-old_color="#FCDB5A"/><path style="fill:#FFAD61;" d="M386.286,244.724l8.609,83.666h1.538c33.976,0,61.525-27.549,61.525-61.525L386.286,244.724z" data-original="#FFAD61" class=""/><path style="fill:#FCDB5A" d="M143.301,266.864l132.562-33.211l132.562,33.211c0,21.749-4.803,42.523-13.531,61.525H204.827  C170.84,328.39,143.301,300.84,143.301,266.864z" data-original="#FCDB5A" class="" data-old_color="#FCDB5A"/><path style="fill:#0279A0" d="M164.85,0v133.142l55.351-11.07V55.351C220.201,24.786,195.426,0,164.85,0z" data-original="#555843" class="active-path" data-old_color="#555843"/><path style="fill:#EE4F97" d="M186.99,55.351v77.791l-53.635-11.07l-0.011-12.244c-0.077-0.011-0.144-0.033-0.221-0.044  c-21.476-3.941-38.613-20.303-43.705-41.359c-1.018-4.196-1.55-8.568-1.55-13.074c0-15.288,6.188-29.115,16.207-39.133  C114.092,6.188,127.93,0,143.218,0h21.631C177.082,0,186.99,24.786,186.99,55.351z" data-original="#5D734F" class="" data-old_color="#5D734F"/><path style="fill:#FCDB5A" d="M273.322,512H167.078c-4.585,0-8.303-3.716-8.303-8.303c0-4.586,3.717-8.303,8.303-8.303h106.244  c4.586,0,8.303,3.716,8.303,8.303C281.624,508.284,277.908,512,273.322,512z" data-original="#FCDB5A" class="" data-old_color="#FCDB5A"/><g>
	<rect x="133.352" y="122.072" style="fill:#4D3D36;" width="86.846" height="16.605" data-original="#4D3D36" class=""/>
	<path style="fill:#4D3D36;" d="M89.932,76.731h-11.07c-4.585,0-8.303-3.716-8.303-8.303s3.717-8.303,8.303-8.303h8.173   l25.458-20.233c1.469-1.168,3.29-1.803,5.166-1.803h15.698c4.585,0,8.303,3.716,8.303,8.303s-3.717,8.303-8.303,8.303h-12.802   L95.097,74.928C93.629,76.095,91.808,76.731,89.932,76.731z" data-original="#4D3D36" class=""/>
</g><path style="fill:#594B44;" d="M419.034,205.342h-33.211l61.518,61.517h33.211C480.552,232.885,453.009,205.342,419.034,205.342z" data-original="#594B44" class=""/><path style="fill:#14A7DF" d="M447.341,266.86H143.296c0-33.975,27.543-61.517,61.529-61.517h180.999  C419.798,205.342,447.341,232.885,447.341,266.86z" data-original="#87635C" class="" data-old_color="#87635C"/></g> </svg>
