<?xml version="1.0" encoding="UTF-8" standalone="no"?><!-- Generator: Gravit.io --><svg xmlns="http://www.w3.org/2000/svg" xmlns:xlink="http://www.w3.org/1999/xlink" style="isolation:isolate" viewBox="0 0 851 315" width="851pt" height="315pt"><defs><clipPath id="_clipPath_u95kfzoHGh5aSR6BgRyhrf04ExLQXobQ"><rect width="851" height="315"/></clipPath></defs><g clip-path="url(#_clipPath_u95kfzoHGh5aSR6BgRyhrf04ExLQXobQ)"><g><rect x="140.343" y="214.489" width="6.389" height="38.52" transform="matrix(-0.989,0.146,-0.146,-0.989,319.601,444.089)" fill="rgb(252,219,90)"/><path d=" M 187.92 178.222 L 130.826 225.102 C 161.311 225.102 187.34 208.656 198.044 185.352 L 187.92 178.222 Z " fill="rgb(255,230,184)"/><path d=" M 130.826 138.009 L 187.92 178.222 L 185.266 185.352 C 176.598 208.656 155.514 225.102 130.826 225.102 C 90.77 225.102 58.202 196.708 58.202 161.679 C 58.202 153.76 61.516 146.613 66.841 141.531 C 74.482 134.239 97.411 112.359 97.411 112.359 L 130.826 112.359 L 130.826 138.009 L 130.826 138.009 Z " fill="rgb(255,243,220)"/><path d=" M 97.32 101.241 L 66.157 101.241 C 61.762 101.241 58.201 97.68 58.201 93.285 C 58.201 88.891 61.762 85.329 66.157 85.329 L 80.507 85.329 C 82.465 93.428 89.058 99.724 97.32 101.241 Z " fill="rgb(252,219,90)"/><path d=" M 194.73 153.161 L 198.042 185.353 L 198.634 185.353 C 211.707 185.353 222.307 174.753 222.307 161.68 L 194.73 153.161 Z " fill="rgb(255,173,97)"/><path d=" M 101.237 161.68 L 152.243 148.902 L 203.248 161.68 C 203.248 170.048 201.4 178.041 198.042 185.353 L 124.91 185.353 C 111.833 185.353 101.237 174.753 101.237 161.68 Z " fill="rgb(252,219,90)"/><path d=" M 109.529 59 L 109.529 110.228 L 130.826 105.969 L 130.826 80.297 C 130.826 68.537 121.293 59 109.529 59 Z " fill="rgb(2,121,160)"/><path d=" M 118.047 80.297 L 118.047 110.228 L 97.411 105.969 L 97.406 101.258 C 97.377 101.254 97.351 101.245 97.321 101.241 C 89.058 99.725 82.464 93.429 80.505 85.328 C 80.113 83.713 79.909 82.031 79.909 80.297 C 79.909 74.415 82.29 69.095 86.145 65.24 C 89.999 61.381 95.323 59 101.205 59 L 109.528 59 C 114.235 59 118.047 68.537 118.047 80.297 Z " fill="rgb(238,79,151)"/><path d=" M 151.265 256 L 110.386 256 C 108.622 256 107.191 254.57 107.191 252.805 C 107.191 251.041 108.621 249.611 110.386 249.611 L 151.265 249.611 C 153.03 249.611 154.46 251.04 154.46 252.805 C 154.459 254.57 153.03 256 151.265 256 Z " fill="rgb(252,219,90)"/><g><rect x="97.409" y="105.969" width="33.415" height="6.389" transform="matrix(1,0,0,1,0,0)" fill="rgb(77,61,54)"/><path d=" M 80.703 88.523 L 76.443 88.523 C 74.679 88.523 73.249 87.094 73.249 85.329 C 73.249 83.564 74.679 82.134 76.443 82.134 L 79.588 82.134 L 89.384 74.349 C 89.949 73.9 90.649 73.655 91.371 73.655 L 97.411 73.655 C 99.175 73.655 100.606 75.085 100.606 76.85 C 100.606 78.615 99.176 80.045 97.411 80.045 L 92.486 80.045 L 82.69 87.83 C 82.125 88.279 81.425 88.523 80.703 88.523 Z " fill="rgb(77,61,54)"/></g><path d=" M 207.33 138.009 L 194.552 138.009 L 218.222 161.678 L 231 161.678 C 231 148.606 220.402 138.009 207.33 138.009 Z " fill="rgb(89,75,68)"/><path d=" M 218.222 161.679 L 101.235 161.679 C 101.235 148.606 111.833 138.009 124.91 138.009 L 194.552 138.009 C 207.624 138.009 218.222 148.606 218.222 161.679 Z " fill="rgb(20,167,223)"/></g><text transform="matrix(1,0,0,1,248.868,193.978)" style="font-family:'Fredoka One';font-weight:400;font-size:97px;font-style:normal;fill:#ee4f97;stroke:none;">duckimport</text></g></svg>